<svg width="369" height="68" viewBox="0 0 369 68" fill="none" xmlns="http://www.w3.org/2000/svg">
<path d="M93.0361 54.5754C90.1691 54.5754 87.5021 54.0855 85.0345 53.1057C82.6032 52.0897 80.4622 50.6744 78.6115 48.86C76.7971 47.0456 75.3819 44.9409 74.3658 42.5459C73.3498 40.1146 72.8418 37.5019 72.8418 34.7077C72.8418 31.9135 73.3498 29.319 74.3658 26.9239C75.3819 24.4927 76.7971 22.388 78.6115 20.6098C80.4259 18.8317 82.5488 17.4528 84.9801 16.473C87.4481 15.4569 90.1151 14.9489 92.9811 14.9489C96.0301 14.9489 98.7331 15.4388 101.092 16.4186C103.487 17.3984 105.573 18.741 107.352 20.4465L101.636 26.2163C100.62 25.1277 99.3861 24.2749 97.9351 23.658C96.5201 23.0411 94.8681 22.7327 92.9811 22.7327C91.3121 22.7327 89.7701 23.023 88.3551 23.6036C86.9761 24.1479 85.7784 24.9463 84.7624 25.9986C83.7826 27.051 83.0024 28.321 82.4218 29.8088C81.8775 31.2966 81.6053 32.9296 81.6053 34.7077C81.6053 36.5221 81.8775 38.1732 82.4218 39.661C83.0024 41.1488 83.7826 42.4189 84.7624 43.4713C85.7784 44.5236 86.9761 45.3401 88.3551 45.9207C89.7701 46.5013 91.3121 46.7916 92.9811 46.7916C94.9411 46.7916 96.6471 46.4832 98.0981 45.8663C99.5501 45.2494 100.802 44.3966 101.854 43.308L107.624 49.0778C105.773 50.7833 103.65 52.1259 101.255 53.1057C98.8961 54.0855 96.1571 54.5754 93.0361 54.5754ZM129.132 54.6298C126.228 54.6298 123.543 54.1218 121.076 53.1057C118.644 52.0897 116.503 50.6744 114.653 48.86C112.802 47.0456 111.369 44.9409 110.353 42.5459C109.336 40.1146 108.828 37.5019 108.828 34.7077C108.828 31.8773 109.336 29.2645 110.353 26.8695C111.369 24.4745 112.784 22.388 114.598 20.6098C116.413 18.7954 118.535 17.3984 120.967 16.4186C123.434 15.4025 126.12 14.8945 129.023 14.8945C131.889 14.8945 134.538 15.4025 136.97 16.4186C139.437 17.3984 141.578 18.7954 143.393 20.6098C145.243 22.388 146.677 24.4927 147.693 26.9239C148.709 29.319 149.217 31.9317 149.217 34.7622C149.217 37.5563 148.709 40.1691 147.693 42.6004C146.677 44.9954 145.262 47.1001 143.447 48.9145C141.633 50.6926 139.492 52.0897 137.024 53.1057C134.593 54.1218 131.962 54.6298 129.132 54.6298ZM129.023 46.846C131.309 46.846 133.305 46.338 135.01 45.322C136.752 44.3059 138.095 42.8907 139.038 41.0763C139.982 39.2256 140.453 37.1027 140.453 34.7077C140.453 32.8933 140.181 31.2604 139.637 29.8088C139.093 28.321 138.312 27.051 137.296 25.9986C136.28 24.91 135.065 24.0935 133.649 23.5492C132.27 22.9686 130.728 22.6783 129.023 22.6783C126.737 22.6783 124.723 23.1863 122.981 24.2023C121.275 25.1821 119.951 26.5792 119.007 28.3936C118.064 30.1717 117.592 32.2764 117.592 34.7077C117.592 36.5221 117.864 38.1732 118.408 39.661C118.953 41.1488 119.715 42.4371 120.695 43.5257C121.711 44.578 122.926 45.3945 124.342 45.9751C125.757 46.5557 127.317 46.846 129.023 46.846ZM161.174 38.1369V31.8228H169.284C170.99 31.8228 172.296 31.3874 173.203 30.5165C174.147 29.6455 174.618 28.4662 174.618 26.9784C174.618 25.5994 174.165 24.4564 173.258 23.5492C172.35 22.642 171.044 22.1884 169.338 22.1884H161.174V15.5477H170.318C172.858 15.5477 175.09 16.0376 177.013 17.0173C178.937 17.9608 180.443 19.2853 181.531 20.9909C182.62 22.6964 183.164 24.656 183.164 26.8695C183.164 29.1194 182.62 31.0971 181.531 32.8026C180.443 34.4718 178.918 35.7782 176.959 36.7217C174.999 37.6652 172.695 38.1369 170.046 38.1369H161.174ZM154.642 53.9766V15.5477H163.188V53.9766H154.642ZM175.544 53.9766L163.569 37.4293L171.407 35.3065L185.668 53.9766H175.544ZM189.406 53.9766V15.5477H197.952V53.9766H189.406ZM195.938 53.9766V46.5739H217.003V53.9766H195.938ZM195.938 37.9192V30.7886H215.098V37.9192H195.938ZM195.938 22.896V15.5477H216.731V22.896H195.938ZM222.894 53.9766V15.5477H231.44V53.9766H222.894ZM229.481 53.9766V46.465H248.477V53.9766H229.481ZM269.623 54.6298C266.72 54.6298 264.035 54.1218 261.567 53.1057C259.136 52.0897 256.995 50.6744 255.144 48.86C253.294 47.0456 251.86 44.9409 250.844 42.5459C249.828 40.1146 249.32 37.5019 249.32 34.7077C249.32 31.8773 249.828 29.2645 250.844 26.8695C251.86 24.4745 253.276 22.388 255.09 20.6098C256.904 18.7954 259.027 17.3984 261.459 16.4186C263.926 15.4025 266.611 14.8945 269.515 14.8945C272.381 14.8945 275.03 15.4025 277.462 16.4186C279.929 17.3984 282.07 18.7954 283.885 20.6098C285.735 22.388 287.169 24.4927 288.185 26.9239C289.201 29.319 289.709 31.9317 289.709 34.7622C289.709 37.5563 289.201 40.1691 288.185 42.6004C287.169 44.9954 285.753 47.1001 283.939 48.9145C282.125 50.6926 279.984 52.0897 277.516 53.1057C275.085 54.1218 272.454 54.6298 269.623 54.6298ZM269.515 46.846C271.801 46.846 273.797 46.338 275.502 45.322C277.244 44.3059 278.587 42.8907 279.53 41.0763C280.474 39.2256 280.945 37.1027 280.945 34.7077C280.945 32.8933 280.673 31.2604 280.129 29.8088C279.584 28.321 278.804 27.051 277.788 25.9986C276.772 24.91 275.556 24.0935 274.141 23.5492C272.762 22.9686 271.22 22.6783 269.515 22.6783C267.228 22.6783 265.214 23.1863 263.473 24.2023C261.767 25.1821 260.443 26.5792 259.499 28.3936C258.556 30.1717 258.084 32.2764 258.084 34.7077C258.084 36.5221 258.356 38.1732 258.9 39.661C259.445 41.1488 260.207 42.4371 261.186 43.5257C262.203 44.578 263.418 45.3945 264.833 45.9751C266.249 46.5557 267.809 46.846 269.515 46.846ZM314.009 54.6298C311.106 54.6298 308.42 54.1218 305.953 53.1057C303.522 52.0897 301.381 50.6744 299.53 48.86C297.679 47.0456 296.246 44.9409 295.23 42.5459C294.214 40.1146 293.706 37.5019 293.706 34.7077C293.706 31.8773 294.214 29.2645 295.23 26.8695C296.246 24.4745 297.661 22.388 299.475 20.6098C301.29 18.7954 303.413 17.3984 305.844 16.4186C308.312 15.4025 310.997 14.8945 313.9 14.8945C316.767 14.8945 319.416 15.4025 321.847 16.4186C324.315 17.3984 326.456 18.7954 328.27 20.6098C330.121 22.388 331.554 24.4927 332.57 26.9239C333.586 29.319 334.094 31.9317 334.094 34.7622C334.094 37.5563 333.586 40.1691 332.57 42.6004C331.554 44.9954 330.139 47.1001 328.324 48.9145C326.51 50.6926 324.369 52.0897 321.901 53.1057C319.47 54.1218 316.839 54.6298 314.009 54.6298ZM313.9 46.846C316.186 46.846 318.182 46.338 319.887 45.322C321.629 44.3059 322.972 42.8907 323.915 41.0763C324.859 39.2256 325.331 37.1027 325.331 34.7077C325.331 32.8933 325.059 31.2604 324.514 29.8088C323.97 28.321 323.19 27.051 322.174 25.9986C321.158 24.91 319.942 24.0935 318.527 23.5492C317.148 22.9686 315.606 22.6783 313.9 22.6783C311.614 22.6783 309.6 23.1863 307.858 24.2023C306.152 25.1821 304.828 26.5792 303.884 28.3936C302.941 30.1717 302.469 32.2764 302.469 34.7077C302.469 36.5221 302.741 38.1732 303.286 39.661C303.83 41.1488 304.592 42.4371 305.572 43.5257C306.588 44.578 307.804 45.3945 309.219 45.9751C310.634 46.5557 312.194 46.846 313.9 46.846ZM346.051 39.9876V33.3469H354.325C355.377 33.3469 356.339 33.1292 357.21 32.6937C358.08 32.2583 358.77 31.6232 359.278 30.7886C359.786 29.954 360.04 28.9379 360.04 27.7404C360.04 26.5792 359.786 25.5813 359.278 24.7467C358.77 23.912 358.08 23.277 357.21 22.8416C356.339 22.4061 355.377 22.1884 354.325 22.1884H346.051V15.5477H355.577C358.008 15.5477 360.203 16.0376 362.163 17.0173C364.122 17.9971 365.665 19.4123 366.79 21.263C367.951 23.0774 368.531 25.2366 368.531 27.7404C368.531 30.2443 367.951 32.4216 366.79 34.2723C365.665 36.0867 364.122 37.5019 362.163 38.518C360.203 39.4977 358.008 39.9876 355.577 39.9876H346.051ZM339.519 53.9766V15.5477H348.065V53.9766H339.519Z" fill="#E8E8E8"/>
<path d="M62.8441 50.517C59.1116 56.982 53.3369 62.0236 46.4274 64.8496C39.5179 67.6756 31.8653 68.1258 24.6721 66.1296C17.4789 64.1333 11.1528 59.8037 6.68786 53.821C2.22296 47.8384 -0.127744 40.5418 0.00535648 33.0779C0.138356 25.6141 2.74746 18.4059 7.42266 12.5861C12.0979 6.76645 18.5743 2.66495 25.834 0.926247C33.0938 -0.812453 40.7255 -0.089853 47.5299 2.98055C54.3343 6.05095 59.9257 11.295 63.4256 17.8888L47.8114 26.1764C46.1486 23.0436 43.4921 20.5521 40.2592 19.0933C37.0264 17.6345 33.4005 17.2912 29.9513 18.1173C26.5021 18.9433 23.4251 20.892 21.2039 23.657C18.9826 26.4221 17.743 29.8467 17.6798 33.3929C17.6166 36.9391 18.7334 40.4058 20.8547 43.2482C22.9761 46.0906 25.9817 48.1476 29.3992 49.0961C32.8168 50.0445 36.4526 49.8306 39.7354 48.488C43.0182 47.1453 45.7618 44.75 47.5352 41.6784L62.8441 50.517Z" fill="url(#paint0_linear_762_116)"/>
<path d="M39.8878 39.3754C43.1758 36.0873 43.1758 30.7564 39.8878 27.4684C36.5998 24.1804 31.2689 24.1804 27.9808 27.4684C24.6928 30.7564 24.6928 36.0873 27.9808 39.3754C31.2689 42.6634 36.5998 42.6634 39.8878 39.3754Z" fill="url(#paint1_linear_762_116)"/>
<defs>
<linearGradient id="paint0_linear_762_116" x1="9.86406" y1="9.86405" x2="57.492" y2="57.492" gradientUnits="userSpaceOnUse">
<stop stop-color="#01497C"/>
<stop offset="1" stop-color="#0285E2"/>
</linearGradient>
<linearGradient id="paint1_linear_762_116" x1="27.9808" y1="27.4684" x2="39.8879" y2="39.3754" gradientUnits="userSpaceOnUse">
<stop stop-color="#012A4A"/>
<stop offset="1" stop-color="#0264B0"/>
</linearGradient>
</defs>
</svg>
